<svg viewBox="0 0 600 600" xmlns="http://www.w3.org/2000/svg">
  <g>
    <rect x="50" y="50" width="500" height="500" rx="50" fill="#4B5563" />
    <path d="M300,350 C357.264,350 414.36,292.904 414.36,235.64 C414.36,178.376 357.264,121.28 300,121.28 C242.736,121.28 185.64,178.376 185.64,235.64 C185.64,292.904 242.736,350 300,350 Z" fill="#F3F4F6" />
    <path d="M300,300 C328.548,300 350,278.548 350,250 C350,221.452 328.548,200 300,200 C271.452,200 250,221.452 250,250 C250,278.548 271.452,300 300,300 Z" fill="#4B5563" />
    <path d="M300,275 L300,225 M275,250 L325,250" stroke="#F3F4F6" stroke-width="20" stroke-linecap="round" />
  </g>
</svg>
